<svg width="149" height="48" viewBox="0 0 149 48" fill="none" xmlns="http://www.w3.org/2000/svg">
<rect width="149" height="48" rx="24" fill="#8257E5"/>
<path d="M24.3749 32.25H16.4718C16.3767 32.2513 16.2822 32.2334 16.1941 32.1976C16.1059 32.1618 16.0258 32.1087 15.9586 32.0414C15.8913 31.9741 15.8382 31.894 15.8023 31.8059C15.7665 31.7177 15.7487 31.6233 15.7499 31.5281V23.625C15.7499 21.3375 16.6586 19.1437 18.2761 17.5262C19.8936 15.9087 22.0874 15 24.3749 15C25.5076 15 26.6292 15.2231 27.6756 15.6565C28.722 16.09 29.6728 16.7253 30.4737 17.5262C31.2746 18.3271 31.91 19.2779 32.3434 20.3244C32.7768 21.3708 32.9999 22.4923 32.9999 23.625C32.9999 24.7577 32.7768 25.8792 32.3434 26.9256C31.91 27.9721 31.2746 28.9229 30.4737 29.7238C29.6728 30.5247 28.722 31.16 27.6756 31.5935C26.6292 32.0269 25.5076 32.25 24.3749 32.25Z" stroke="white" stroke-width="1.5" stroke-linecap="round" stroke-linejoin="round"/>
<path d="M25.4531 24C25.4531 24.5954 24.9704 25.0781 24.375 25.0781C23.7796 25.0781 23.2969 24.5954 23.2969 24C23.2969 23.4046 23.7796 22.9219 24.375 22.9219C24.9704 22.9219 25.4531 23.4046 25.4531 24Z" fill="white" stroke="white" stroke-width="0.09375"/>
<path d="M20.9531 24C20.9531 24.5954 20.4704 25.0781 19.875 25.0781C19.2796 25.0781 18.7969 24.5954 18.7969 24C18.7969 23.4046 19.2796 22.9219 19.875 22.9219C20.4704 22.9219 20.9531 23.4046 20.9531 24Z" fill="white" stroke="white" stroke-width="0.09375"/>
<path d="M29.9531 24C29.9531 24.5954 29.4704 25.0781 28.875 25.0781C28.2796 25.0781 27.7969 24.5954 27.7969 24C27.7969 23.4046 28.2796 22.9219 28.875 22.9219C29.4704 22.9219 29.9531 23.4046 29.9531 24Z" fill="white" stroke="white" stroke-width="0.09375"/>
<path d="M45.2784 30V18.3636H52.4943V19.875H47.0341V23.4205H51.9773V24.9261H47.0341V30H45.2784ZM57.6378 30.1761C56.7779 30.1761 56.0374 29.9924 55.4162 29.625C54.7988 29.2538 54.3215 28.733 53.9844 28.0625C53.651 27.3883 53.4844 26.5985 53.4844 25.6932C53.4844 24.7992 53.651 24.0114 53.9844 23.3295C54.3215 22.6477 54.7912 22.1155 55.3935 21.733C55.9995 21.3504 56.7079 21.1591 57.5185 21.1591C58.0109 21.1591 58.4882 21.2405 58.9503 21.4034C59.4124 21.5663 59.8272 21.822 60.1946 22.1705C60.562 22.5189 60.8518 22.9716 61.0639 23.5284C61.276 24.0814 61.3821 24.7538 61.3821 25.5455V26.1477H54.4446V24.875H59.7173C59.7173 24.428 59.6264 24.0322 59.4446 23.6875C59.2628 23.339 59.0071 23.0644 58.6776 22.8636C58.3518 22.6629 57.9692 22.5625 57.5298 22.5625C57.0526 22.5625 56.6359 22.6799 56.2798 22.9148C55.9276 23.1458 55.6548 23.4489 55.4616 23.8239C55.2723 24.1951 55.1776 24.5985 55.1776 25.0341V26.0284C55.1776 26.6117 55.2798 27.108 55.4844 27.517C55.6927 27.9261 55.9825 28.2386 56.3537 28.4545C56.7249 28.6667 57.1586 28.7727 57.6548 28.7727C57.9768 28.7727 58.2704 28.7273 58.5355 28.6364C58.8007 28.5417 59.0298 28.4015 59.223 28.2159C59.4162 28.0303 59.5639 27.8011 59.6662 27.5284L61.2741 27.8182C61.1454 28.2917 60.9143 28.7064 60.581 29.0625C60.2514 29.4148 59.8366 29.6894 59.3366 29.8864C58.8404 30.0795 58.2741 30.1761 57.6378 30.1761ZM67.0284 30.1761C66.1686 30.1761 65.428 29.9924 64.8068 29.625C64.1894 29.2538 63.7121 28.733 63.375 28.0625C63.0417 27.3883 62.875 26.5985 62.875 25.6932C62.875 24.7992 63.0417 24.0114 63.375 23.3295C63.7121 22.6477 64.1818 22.1155 64.7841 21.733C65.3902 21.3504 66.0985 21.1591 66.9091 21.1591C67.4015 21.1591 67.8788 21.2405 68.3409 21.4034C68.803 21.5663 69.2178 21.822 69.5852 22.1705C69.9527 22.5189 70.2424 22.9716 70.4545 23.5284C70.6667 24.0814 70.7727 24.7538 70.7727 25.5455V26.1477H63.8352V24.875H69.108C69.108 24.428 69.017 24.0322 68.8352 23.6875C68.6534 23.339 68.3977 23.0644 68.0682 22.8636C67.7424 22.6629 67.3598 22.5625 66.9205 22.5625C66.4432 22.5625 66.0265 22.6799 65.6705 22.9148C65.3182 23.1458 65.0455 23.4489 64.8523 23.8239C64.6629 24.1951 64.5682 24.5985 64.5682 25.0341V26.0284C64.5682 26.6117 64.6705 27.108 64.875 27.517C65.0833 27.9261 65.3731 28.2386 65.7443 28.4545C66.1155 28.6667 66.5492 28.7727 67.0455 28.7727C67.3674 28.7727 67.661 28.7273 67.9261 28.6364C68.1913 28.5417 68.4205 28.4015 68.6136 28.2159C68.8068 28.0303 68.9545 27.8011 69.0568 27.5284L70.6648 27.8182C70.536 28.2917 70.3049 28.7064 69.9716 29.0625C69.642 29.4148 69.2273 29.6894 68.7273 29.8864C68.2311 30.0795 67.6648 30.1761 67.0284 30.1761ZM75.9247 30.1705C75.2202 30.1705 74.5914 29.9905 74.0384 29.6307C73.4891 29.267 73.0573 28.75 72.7429 28.0795C72.4323 27.4053 72.277 26.5966 72.277 25.6534C72.277 24.7102 72.4342 23.9034 72.7486 23.233C73.0668 22.5625 73.5024 22.0492 74.0554 21.6932C74.6084 21.3371 75.2353 21.1591 75.9361 21.1591C76.4777 21.1591 76.9134 21.25 77.2429 21.4318C77.5762 21.6098 77.8338 21.8182 78.0156 22.0568C78.2012 22.2955 78.3452 22.5057 78.4474 22.6875H78.5497V18.3636H80.2486V30H78.5895V28.642H78.4474C78.3452 28.8277 78.1974 29.0398 78.0043 29.2784C77.8149 29.517 77.5535 29.7254 77.2202 29.9034C76.8868 30.0814 76.455 30.1705 75.9247 30.1705ZM76.2997 28.7216C76.7884 28.7216 77.2012 28.5928 77.5384 28.3352C77.8793 28.0739 78.1368 27.7121 78.3111 27.25C78.4891 26.7879 78.5781 26.25 78.5781 25.6364C78.5781 25.0303 78.491 24.5 78.3168 24.0455C78.1425 23.5909 77.8868 23.2367 77.5497 22.983C77.2126 22.7292 76.7959 22.6023 76.2997 22.6023C75.7884 22.6023 75.3622 22.7348 75.0213 23C74.6804 23.2652 74.4228 23.6269 74.2486 24.0852C74.0781 24.5436 73.9929 25.0606 73.9929 25.6364C73.9929 26.2197 74.08 26.7443 74.2543 27.2102C74.4285 27.6761 74.6861 28.0455 75.027 28.3182C75.3717 28.5871 75.7959 28.7216 76.2997 28.7216ZM85.0881 30L81.8608 18.3636H83.7074L85.9744 27.375H86.0824L88.4403 18.3636H90.2699L92.6278 27.3807H92.7358L94.9972 18.3636H96.8494L93.6165 30H91.8494L89.4006 21.2841H89.3097L86.8608 30H85.0881ZM98.3139 30V21.2727H100.013V30H98.3139ZM99.1719 19.9261C98.8764 19.9261 98.6226 19.8277 98.4105 19.6307C98.2022 19.4299 98.098 19.1913 98.098 18.9148C98.098 18.6345 98.2022 18.3958 98.4105 18.1989C98.6226 17.9981 98.8764 17.8977 99.1719 17.8977C99.4673 17.8977 99.7192 17.9981 99.9276 18.1989C100.14 18.3958 100.246 18.6345 100.246 18.9148C100.246 19.1913 100.14 19.4299 99.9276 19.6307C99.7192 19.8277 99.4673 19.9261 99.1719 19.9261ZM105.565 30.1705C104.861 30.1705 104.232 29.9905 103.679 29.6307C103.13 29.267 102.698 28.75 102.384 28.0795C102.073 27.4053 101.918 26.5966 101.918 25.6534C101.918 24.7102 102.075 23.9034 102.389 23.233C102.707 22.5625 103.143 22.0492 103.696 21.6932C104.249 21.3371 104.876 21.1591 105.577 21.1591C106.118 21.1591 106.554 21.25 106.884 21.4318C107.217 21.6098 107.474 21.8182 107.656 22.0568C107.842 22.2955 107.986 22.5057 108.088 22.6875H108.19V18.3636H109.889V30H108.23V28.642H108.088C107.986 28.8277 107.838 29.0398 107.645 29.2784C107.455 29.517 107.194 29.7254 106.861 29.9034C106.527 30.0814 106.096 30.1705 105.565 30.1705ZM105.94 28.7216C106.429 28.7216 106.842 28.5928 107.179 28.3352C107.52 28.0739 107.777 27.7121 107.952 27.25C108.13 26.7879 108.219 26.25 108.219 25.6364C108.219 25.0303 108.132 24.5 107.957 24.0455C107.783 23.5909 107.527 23.2367 107.19 22.983C106.853 22.7292 106.437 22.6023 105.94 22.6023C105.429 22.6023 105.003 22.7348 104.662 23C104.321 23.2652 104.063 23.6269 103.889 24.0852C103.719 24.5436 103.634 25.0606 103.634 25.6364C103.634 26.2197 103.721 26.7443 103.895 27.2102C104.069 27.6761 104.327 28.0455 104.668 28.3182C105.012 28.5871 105.437 28.7216 105.94 28.7216ZM115.973 33.4545C115.28 33.4545 114.683 33.3636 114.183 33.1818C113.687 33 113.282 32.7595 112.967 32.4602C112.653 32.161 112.418 31.8333 112.263 31.4773L113.723 30.875C113.825 31.0417 113.962 31.2178 114.132 31.4034C114.306 31.5928 114.541 31.7538 114.837 31.8864C115.136 32.0189 115.52 32.0852 115.99 32.0852C116.634 32.0852 117.166 31.928 117.587 31.6136C118.007 31.303 118.217 30.8068 118.217 30.125V28.4091H118.109C118.007 28.5947 117.859 28.8011 117.666 29.0284C117.477 29.2557 117.215 29.4527 116.882 29.6193C116.549 29.786 116.115 29.8693 115.581 29.8693C114.892 29.8693 114.27 29.7083 113.717 29.3864C113.168 29.0606 112.732 28.5814 112.411 27.9489C112.092 27.3125 111.933 26.5303 111.933 25.6023C111.933 24.6742 112.09 23.8788 112.405 23.2159C112.723 22.553 113.159 22.0455 113.712 21.6932C114.265 21.3371 114.892 21.1591 115.592 21.1591C116.134 21.1591 116.571 21.25 116.905 21.4318C117.238 21.6098 117.498 21.8182 117.683 22.0568C117.873 22.2955 118.018 22.5057 118.121 22.6875H118.246V21.2727H119.911V30.1932C119.911 30.9432 119.736 31.5587 119.388 32.0398C119.039 32.5208 118.568 32.8769 117.973 33.108C117.382 33.339 116.715 33.4545 115.973 33.4545ZM115.956 28.4602C116.445 28.4602 116.857 28.3466 117.195 28.1193C117.536 27.8883 117.793 27.5587 117.967 27.1307C118.145 26.6989 118.234 26.1818 118.234 25.5795C118.234 24.9924 118.147 24.4754 117.973 24.0284C117.799 23.5814 117.543 23.233 117.206 22.983C116.869 22.7292 116.452 22.6023 115.956 22.6023C115.445 22.6023 115.018 22.7348 114.678 23C114.337 23.2614 114.079 23.6174 113.905 24.0682C113.734 24.5189 113.649 25.0227 113.649 25.5795C113.649 26.1515 113.736 26.6534 113.911 27.0852C114.085 27.517 114.342 27.8542 114.683 28.0966C115.028 28.339 115.452 28.4602 115.956 28.4602ZM125.95 30.1761C125.09 30.1761 124.35 29.9924 123.729 29.625C123.111 29.2538 122.634 28.733 122.297 28.0625C121.964 27.3883 121.797 26.5985 121.797 25.6932C121.797 24.7992 121.964 24.0114 122.297 23.3295C122.634 22.6477 123.104 22.1155 123.706 21.733C124.312 21.3504 125.02 21.1591 125.831 21.1591C126.323 21.1591 126.801 21.2405 127.263 21.4034C127.725 21.5663 128.14 21.822 128.507 22.1705C128.875 22.5189 129.164 22.9716 129.376 23.5284C129.589 24.0814 129.695 24.7538 129.695 25.5455V26.1477H122.757V24.875H128.03C128.03 24.428 127.939 24.0322 127.757 23.6875C127.575 23.339 127.32 23.0644 126.99 22.8636C126.664 22.6629 126.282 22.5625 125.842 22.5625C125.365 22.5625 124.948 22.6799 124.592 22.9148C124.24 23.1458 123.967 23.4489 123.774 23.8239C123.585 24.1951 123.49 24.5985 123.49 25.0341V26.0284C123.49 26.6117 123.592 27.108 123.797 27.517C124.005 27.9261 124.295 28.2386 124.666 28.4545C125.037 28.6667 125.471 28.7727 125.967 28.7727C126.289 28.7727 126.583 28.7273 126.848 28.6364C127.113 28.5417 127.342 28.4015 127.536 28.2159C127.729 28.0303 127.876 27.8011 127.979 27.5284L129.587 27.8182C129.458 28.2917 129.227 28.7064 128.893 29.0625C128.564 29.4148 128.149 29.6894 127.649 29.8864C127.153 30.0795 126.587 30.1761 125.95 30.1761ZM135.653 21.2727V22.6364H130.886V21.2727H135.653ZM132.165 19.1818H133.864V27.4375C133.864 27.767 133.913 28.0152 134.011 28.1818C134.11 28.3447 134.237 28.4564 134.392 28.517C134.551 28.5739 134.723 28.6023 134.909 28.6023C135.045 28.6023 135.165 28.5928 135.267 28.5739C135.369 28.5549 135.449 28.5398 135.506 28.5284L135.812 29.9318C135.714 29.9697 135.574 30.0076 135.392 30.0455C135.21 30.0871 134.983 30.1098 134.71 30.1136C134.263 30.1212 133.847 30.0417 133.46 29.875C133.074 29.7083 132.761 29.4508 132.523 29.1023C132.284 28.7538 132.165 28.3163 132.165 27.7898V19.1818Z" fill="white"/>
</svg>
